<svg width="1024" height="1024" viewBox="0 0 1024 1024" fill="none" xmlns="http://www.w3.org/2000/svg">
<g clip-path="url(#clip0_3_21)">
<circle opacity="0.98" cx="512.001" cy="512" r="370" transform="rotate(-45 512.001 512)" stroke="black" stroke-width="60" stroke-miterlimit="11.4737" stroke-linecap="round" stroke-dasharray="210 210"/>
<path d="M466.638 692.2C453.838 692.2 440.838 691.8 427.638 691C414.438 690.6 401.438 689.6 388.638 688C360.238 685.6 346.038 676.4 346.038 660.4C346.038 652.4 349.238 642.8 355.638 631.6C370.838 604 386.438 576.6 402.438 549.4C418.438 521.8 434.238 494.2 449.838 466.6C454.638 457.8 460.838 446.8 468.438 433.6C476.038 420.4 483.638 407.8 491.238 395.8C494.838 390.2 500.038 384.6 506.838 379C513.638 373 520.638 369.2 527.838 367.6C519.438 368 508.638 368.6 495.438 369.4C482.638 370.2 469.438 371.8 455.838 374.2C442.638 376.2 430.638 379.6 419.838 384.4C409.438 388.8 402.038 395 397.638 403C396.038 406.6 394.638 410.2 393.438 413.8C392.238 417.4 391.638 421 391.638 424.6C391.638 433.8 394.838 440.4 401.238 444.4C401.638 444.4 401.838 444.8 401.838 445.6C401.838 446.4 401.038 447.2 399.438 448C398.238 448.8 397.038 449 395.838 448.6C392.238 446.6 387.838 441.8 382.638 434.2C377.438 426.2 374.238 419.6 373.038 414.4C371.838 409.6 371.238 405.2 371.238 401.2C371.238 390.8 374.638 382.8 381.438 377.2C388.238 371.2 396.838 367 407.238 364.6C417.638 361.8 428.238 360.2 439.038 359.8C449.838 359 459.438 358.6 467.838 358.6C489.038 358.6 510.238 358.4 531.438 358C552.638 357.2 573.638 356.8 594.438 356.8C603.638 356.8 612.638 356.8 621.438 356.8C630.638 356.8 639.638 357.2 648.438 358C658.438 358.4 665.238 360.4 668.838 364C672.838 367.6 674.838 372 674.838 377.2C674.838 383.6 672.638 391 668.238 399.4C664.238 407.4 660.438 414.8 656.838 421.6C655.238 424.8 652.638 427.2 649.038 428.8C645.438 430 644.038 428.8 644.838 425.2C646.838 417.2 647.838 409.2 647.838 401.2C647.838 394 646.438 387.6 643.638 382C641.238 376 636.438 371.8 629.238 369.4C622.438 367.4 611.838 366.4 597.438 366.4C592.238 366.4 586.838 366.6 581.238 367C576.038 367 570.638 367.2 565.038 367.6C549.038 368.8 538.238 373 532.638 380.2C519.438 398.6 506.638 418.6 494.238 440.2C482.238 461.4 470.638 481.6 459.438 500.8C459.038 501.6 458.838 502.6 458.838 503.8C458.838 506.2 460.638 507.4 464.238 507.4C478.238 507.4 493.238 507.6 509.238 508C525.638 508.4 540.038 508.4 552.438 508C555.238 507.6 559.438 507.2 565.038 506.8C571.038 506.4 577.038 505.6 583.038 504.4C589.438 503.2 594.238 501.8 597.438 500.2C599.438 499 600.638 498.4 601.038 498.4C603.438 498.4 603.438 500.8 601.038 505.6C599.038 510 595.438 514.6 590.238 519.4C585.438 523.8 579.838 526 573.438 526C553.838 526 537.238 525.6 523.638 524.8C510.438 524 495.638 523.6 479.238 523.6C475.238 523.6 471.038 523.6 466.638 523.6C462.238 523.6 457.438 523.8 452.238 524.2C448.238 524.6 445.438 526.2 443.838 529C439.838 536.2 436.238 542.8 433.038 548.8C430.238 554.8 426.638 561.8 422.238 569.8C419.038 575.8 415.038 583.6 410.238 593.2C405.838 602.4 401.838 612 398.238 622C394.638 631.6 392.838 640 392.838 647.2C392.838 659.6 398.638 668.2 410.238 673C421.838 677.4 436.038 679.8 452.838 680.2C476.038 680.2 498.838 678 521.238 673.6C544.038 668.8 565.238 661 584.838 650.2C604.838 639 622.238 624 637.038 605.2C637.838 604.4 638.438 604 638.838 604C640.038 604 640.838 605.2 641.238 607.6C641.638 609.6 641.438 611.2 640.638 612.4C628.238 627.6 616.238 642.4 604.638 656.8C593.038 670.8 581.438 679.6 569.838 683.2C561.438 685.6 547.838 687.6 529.038 689.2C510.238 691.2 489.438 692.2 466.638 692.2Z" fill="black"/>
</g>
<defs>
<clipPath id="clip0_3_21">
<rect width="1024" height="1024" fill="white"/>
</clipPath>
</defs>
</svg>
